<?xml version="1.0" encoding="utf-8"?>
<svg viewBox="0 158.162 497.761 124.803" xmlns="http://www.w3.org/2000/svg">
  <defs>
    <linearGradient id="paint0_linear_3_352" x1="12.5476" y1="51.5604" x2="39.3109" y2="11.1056" gradientUnits="userSpaceOnUse" gradientTransform="matrix(1.739539, 0, 0, 1.761472, 20.797787, 173.49403)">
      <stop stop-color="#54C8E0"/>
      <stop offset="1" stop-color="#19E789"/>
    </linearGradient>
  </defs>
  <path d="M 388.581 184.291 C 388.581 182.932 389.101 181.909 389.972 180.89 C 391.015 179.871 392.059 179.529 393.451 179.529 C 394.842 179.529 396.06 180.039 396.929 180.89 C 397.974 181.741 398.322 182.932 398.322 184.291 C 398.322 185.651 397.8 186.842 396.929 187.694 C 396.06 188.712 394.842 189.054 393.451 189.054 C 392.059 189.054 390.841 188.544 389.972 187.694 C 389.101 186.672 388.581 185.651 388.581 184.291 Z" fill="#19E789" style="transform-origin: 393.451px 184.295px;"/>
  <path d="M 159.83 198.922 L 159.83 208.786 C 158.091 206.745 156.526 205.382 155.134 204.534 C 153.742 203.683 152.177 203.344 150.437 203.344 C 147.653 203.344 145.219 204.363 143.306 206.233 C 141.565 208.105 140.696 210.656 140.696 213.548 C 140.696 216.609 141.565 218.991 143.478 220.861 C 145.393 222.732 147.653 223.752 150.437 223.752 C 152.177 223.752 153.916 223.411 155.308 222.561 C 156.7 221.881 158.265 220.352 160.004 218.309 L 160.004 228.004 C 156.874 229.535 153.916 230.385 150.785 230.385 C 145.74 230.385 141.565 228.854 138.086 225.622 C 134.607 222.392 133.042 218.479 133.042 213.719 C 133.042 208.955 134.781 204.875 138.26 201.642 C 141.739 198.411 145.914 196.709 150.959 196.709 C 153.916 196.709 157.048 197.391 159.83 198.922 Z" style="fill: rgb(255, 255, 255); transform-origin: 146.523px 213.544px;"/>
  <path d="M 167.137 197.558 L 174.617 197.558 L 174.617 200.449 C 176.008 199.089 177.227 198.069 178.27 197.558 C 179.314 197.048 180.705 196.708 182.097 196.708 C 184.01 196.708 186.098 197.389 188.359 198.579 L 184.88 205.381 C 183.488 204.361 182.097 203.852 180.705 203.852 C 176.53 203.852 174.617 206.911 174.617 213.035 L 174.617 229.532 L 167.137 229.532 L 167.137 197.558 Z" style="fill: rgb(255, 255, 255); transform-origin: 177.748px 213.12px;"/>
  <path d="M 206.102 223.58 L 191.49 197.557 L 200.188 197.557 L 210.103 215.925 L 219.496 197.557 L 228.02 197.557 L 201.927 246.877 L 193.23 246.877 L 206.102 223.58 Z" style="fill: rgb(255, 255, 255); transform-origin: 209.755px 222.219px;"/>
  <path d="M 240.72 246.877 L 233.239 246.877 L 233.239 197.557 L 240.72 197.557 L 240.72 200.959 C 243.676 198.068 246.982 196.537 250.809 196.537 C 255.331 196.537 258.985 198.237 261.941 201.468 C 264.899 204.701 266.291 208.784 266.291 213.715 C 266.291 218.477 264.899 222.557 261.941 225.618 C 258.985 228.851 255.331 230.381 250.983 230.381 C 247.155 230.381 243.676 228.851 240.72 225.96 L 240.72 246.877 Z M 258.637 213.715 C 258.637 210.654 257.766 208.101 256.027 206.23 C 254.288 204.36 252.2 203.341 249.591 203.341 C 246.808 203.341 244.546 204.36 242.807 206.23 C 241.068 208.101 240.197 210.654 240.197 213.715 C 240.197 216.775 241.068 219.157 242.807 221.198 C 244.546 223.068 246.808 224.088 249.591 224.088 C 252.2 224.088 254.288 223.068 256.027 221.198 C 257.766 218.988 258.637 216.605 258.637 213.715 Z" style="fill: rgb(255, 255, 255); transform-origin: 249.765px 221.71px;"/>
  <path d="M 282.817 204.363 L 282.817 229.364 L 275.336 229.364 L 275.336 204.363 L 272.205 204.363 L 272.205 197.559 L 275.336 197.559 L 275.336 185.825 L 282.817 185.825 L 282.817 197.559 L 288.731 197.559 L 288.731 204.363 L 282.817 204.363 Z" style="fill: rgb(255, 255, 255); transform-origin: 280.468px 207.592px;"/>
  <path d="M 292.732 213.205 C 292.732 208.615 294.471 204.702 297.776 201.471 C 301.081 198.238 305.256 196.539 310.127 196.539 C 314.997 196.539 319.172 198.238 322.478 201.471 C 325.783 204.702 327.522 208.785 327.522 213.546 C 327.522 218.308 325.783 222.391 322.478 225.621 C 318.998 228.852 314.997 230.384 309.953 230.384 C 305.082 230.384 300.908 228.682 297.602 225.452 C 294.297 222.219 292.732 218.138 292.732 213.205 Z M 300.386 213.375 C 300.386 216.608 301.255 219.158 302.994 221.028 C 304.735 222.9 307.169 223.921 310.127 223.921 C 313.083 223.921 315.519 223.071 317.259 221.201 C 318.998 219.328 319.868 216.777 319.868 213.717 C 319.868 210.655 318.998 208.104 317.259 206.231 C 315.519 204.361 313.083 203.342 310.127 203.342 C 307.169 203.342 304.909 204.361 303.168 206.231 C 301.255 207.935 300.386 210.485 300.386 213.375 Z" style="fill: rgb(255, 255, 255); transform-origin: 310.127px 213.461px;"/>
  <path d="M 335.524 197.559 L 343.004 197.559 L 343.004 200.451 C 344.396 198.921 345.613 197.901 346.658 197.391 C 347.701 196.882 349.092 196.541 350.833 196.541 C 354.485 196.541 357.442 198.072 359.53 201.302 C 361.965 198.072 365.096 196.541 369.097 196.541 C 376.404 196.541 380.056 200.962 380.056 209.636 L 380.056 229.364 L 372.403 229.364 L 372.403 211.676 C 372.403 208.616 372.055 206.405 371.184 205.214 C 370.489 203.853 369.097 203.344 367.357 203.344 C 365.27 203.344 363.705 204.195 362.834 205.555 C 361.965 207.085 361.443 209.466 361.443 212.868 L 361.443 229.364 L 353.789 229.364 L 353.789 211.846 C 353.789 206.233 352.05 203.344 348.745 203.344 C 346.658 203.344 345.091 204.195 344.048 205.725 C 343.004 207.256 342.657 209.806 342.657 213.036 L 342.657 229.535 L 335.524 229.535 L 335.524 197.559 Z" style="fill: rgb(255, 255, 255); transform-origin: 357.79px 213.035px;"/>
  <path d="M 397.277 197.559 L 389.798 197.559 L 389.798 229.535 L 397.277 229.535 L 397.277 197.559 Z" style="fill: rgb(255, 255, 255); transform-origin: 393.538px 213.544px;"/>
  <path d="M 406.845 197.559 L 414.5 197.559 L 414.5 200.451 C 417.108 197.901 420.066 196.541 423.371 196.541 C 427.198 196.541 430.155 197.732 432.243 200.112 C 434.156 202.152 435.025 205.382 435.025 209.806 L 435.025 229.364 L 427.372 229.364 L 427.372 211.676 C 427.372 208.444 426.849 206.405 425.98 205.214 C 425.11 204.024 423.545 203.344 421.283 203.344 C 418.848 203.344 416.934 204.195 415.891 205.725 C 414.847 207.256 414.326 210.145 414.326 214.058 L 414.326 229.535 L 406.845 229.535 L 406.845 197.559 Z" style="fill: rgb(255, 255, 255); transform-origin: 420.935px 213.035px;"/>
  <path d="M 468.598 174.088 L 476.253 174.088 L 476.253 229.532 L 468.598 229.532 L 468.598 226.132 C 465.642 229.022 462.337 230.384 458.51 230.384 C 453.987 230.384 450.334 228.852 447.376 225.621 C 444.42 222.391 443.027 218.308 443.027 213.375 C 443.027 208.615 444.42 204.702 447.376 201.471 C 450.334 198.238 453.987 196.708 458.336 196.708 C 462.163 196.708 465.642 198.238 468.598 201.3 L 468.598 174.088 Z M 450.681 213.375 C 450.681 216.438 451.551 218.989 453.117 220.859 C 454.856 222.731 456.944 223.751 459.553 223.751 C 462.337 223.751 464.597 222.731 466.338 220.859 C 468.077 218.989 468.946 216.438 468.946 213.375 C 468.946 210.314 468.077 207.935 466.338 205.892 C 464.597 204.022 462.337 203.001 459.553 203.001 C 456.944 203.001 454.856 204.022 453.117 205.892 C 451.551 208.104 450.681 210.485 450.681 213.375 Z" style="fill: rgb(255, 255, 255); transform-origin: 459.64px 202.235px;"/>
  <path d="M 117.212 227.15 L 98.773 188.884 C 98.251 187.694 97.034 187.014 95.815 187.014 L 46.587 187.014 C 45.369 187.014 44.325 187.694 43.63 188.712 L 21.19 226.81 C 20.667 227.83 20.667 229.021 21.19 230.042 C 21.712 231.061 22.929 231.741 24.146 231.741 L 42.76 231.741 C 43.977 231.741 45.021 231.061 45.543 230.211 L 58.067 209.632 L 82.073 209.802 C 83.986 209.802 85.379 208.272 85.379 206.571 C 85.379 204.701 83.986 203.341 82.073 203.341 L 56.154 202.999 C 54.937 202.999 53.892 203.68 53.197 204.531 L 40.672 225.111 L 29.887 225.111 L 48.5 193.644 L 93.728 193.644 L 110.428 228.341 L 104.339 238.715 L 90.423 238.884 L 96.163 229.871 C 96.685 229.021 96.86 227.83 96.337 226.81 L 93.033 219.837 C 92.336 218.137 90.249 217.457 88.684 218.305 C 86.944 218.988 86.248 221.027 87.118 222.557 L 89.727 228 L 82.769 239.055 L 58.938 239.225 L 66.243 228.341 L 73.723 228.341 C 75.638 228.341 77.029 226.81 77.029 225.111 C 77.029 223.408 75.464 221.707 73.723 221.707 L 64.504 221.707 C 63.461 221.707 62.242 222.218 61.72 223.237 L 41.02 254.192 C 41.02 254.192 40.846 254.361 40.846 254.531 C 40.846 254.701 40.672 254.701 40.672 254.872 C 40.672 255.043 40.672 255.043 40.672 255.211 C 40.672 255.382 40.672 255.382 40.498 255.553 C 40.498 255.723 40.498 255.723 40.498 255.891 C 40.498 256.062 40.498 256.062 40.498 256.233 C 40.498 256.404 40.498 256.404 40.498 256.574 C 40.498 256.743 40.498 256.743 40.498 256.913 C 40.498 257.084 40.498 257.084 40.672 257.254 C 40.672 257.423 40.672 257.423 40.846 257.593 C 40.846 257.764 41.02 257.764 41.02 257.934 C 41.02 258.104 41.194 258.104 41.194 258.274 C 41.194 258.444 41.368 258.444 41.368 258.613 L 41.543 258.784 C 41.717 258.954 41.717 258.954 41.889 258.954 L 42.063 259.124 C 42.238 259.293 42.412 259.293 42.586 259.465 C 42.76 259.465 42.76 259.635 42.934 259.635 C 43.282 259.804 43.63 259.804 43.803 259.804 C 44.151 259.804 44.325 259.804 44.673 259.635 C 44.673 259.635 44.673 259.635 44.847 259.635 C 45.021 259.635 45.369 259.465 45.543 259.465 L 45.718 259.293 C 45.89 259.124 46.064 259.124 46.064 258.954 L 46.238 258.784 C 46.413 258.613 46.587 258.444 46.587 258.274 L 54.588 246.199 L 106.253 245.518 C 107.471 245.518 108.514 244.838 109.036 243.818 L 116.864 230.381 C 117.559 229.191 117.559 228.171 117.212 227.15 Z" fill="url(#paint0_linear_3_352)" style="transform-origin: 69.119px 223.411px;"/>
</svg>