<svg xmlns="http://www.w3.org/2000/svg" width="109" height="34" fill="none"><mask id="a" width="109" height="34" x="0" y="0" maskUnits="userSpaceOnUse" style="mask-type:alpha"><path fill="#fff" d="M24.527 1.703v7.299l6.056-3.644-6.056-3.655z"/><path fill="#fff" d="M30.582 5.36v7.298l6.056-3.654-6.056-3.645z" opacity=".9"/><path fill="#fff" d="M24.527 9v7.298l6.056-3.644L24.527 9zm6.055 3.656v7.298l6.056-3.654-6.056-3.644z" opacity=".8"/><path fill="#fff" d="M24.527 16.297v7.298l6.056-3.644-6.056-3.654z" opacity=".8"/><path fill="#fff" d="M30.582 19.953v7.298l6.056-3.654-6.056-3.644z"/><path fill="#fff" d="M8.871 8.758v7.298l6.056-3.654L8.87 8.758z" opacity=".4"/><path fill="#fff" d="M16.516 11.469v7.298l6.045-3.644-6.045-3.654z" opacity=".2"/><path fill="#fff" d="M12.023 16.086v7.298l6.056-3.654-6.056-3.644z" opacity=".3"/><path fill="#fff" d="M16.016 21.594v7.298l6.045-3.654-6.045-3.644z" opacity=".9"/><path fill="#fff" d="M24.477 24.734v7.297l6.045-3.654-6.045-3.643z" opacity=".7"/><path fill="#fff" d="M17.52 7.867v7.298l6.045-3.644-6.046-3.654z" opacity=".9"/><path fill="#fff" d="M24.525 1.703v7.299l-6.056-3.644 6.056-3.655z" opacity=".8"/><path fill="#fff" d="M17.52 4.805V12.1l-6.054-3.65 6.056-3.644z" opacity=".6"/><path fill="#fff" d="M23.575 8.422v7.298l-6.055-3.654 6.055-3.644z" opacity=".6"/><path fill="#fff" d="M16.485 11.469v7.298l-6.055-3.644 6.055-3.654z" opacity=".95"/><path fill="#fff" d="M24.526 16.297v7.298L18.48 19.95l6.046-3.654z" opacity=".6"/><path fill="#fff" d="M12.024 18v7.298L5.97 21.643 12.024 18z" opacity=".55"/><path fill="#fff" d="M36.638 9v7.298l-6.056-3.644L36.638 9z"/><path fill="#fff" d="M30.58 12.656v7.298L24.522 16.3l6.056-3.644z" opacity=".95"/><path fill="#fff" d="M36.638 16.297v7.298l-6.056-3.644 6.056-3.654z" opacity=".9"/><path fill="#fff" d="M30.58 19.953v7.298l-6.057-3.654 6.056-3.644z" opacity=".7"/><path fill="#fff" d="M23.185 22.992v7.298l-6.056-3.644 6.056-3.654z" opacity=".4"/><path fill="#fff" d="M30.58 5.36v7.298l-6.057-3.654 6.056-3.645z"/></mask><g mask="url(#a)"><path fill="url(#b)" d="M4 0h34.5v38H4z"/></g><path fill="#fff" d="M46.017 11.3a.305.305 0 0 1 .268.09c.07.073.103.176.088.278V22.58a.33.33 0 0 1-.088.276.305.305 0 0 1-.268.09h-1.735c-.248 0-.372-.12-.372-.366V11.668c0-.248.124-.367.373-.367h1.734z"/><path fill="#fff" fill-rule="evenodd" d="M58.538 14.002a7.395 7.395 0 0 0-1.82-.188l-4.558.002a7.376 7.376 0 0 0-1.828.188 2.715 2.715 0 0 0-1.175.597 2.314 2.314 0 0 0-.638 1.049 5.532 5.532 0 0 0-.19 1.537v2.39a5.53 5.53 0 0 0 .19 1.536c.117.404.337.767.639 1.049.337.296.741.5 1.174.59a7.86 7.86 0 0 0 1.828.179h4.558a7.884 7.884 0 0 0 1.82-.18 2.65 2.65 0 0 0 1.183-.59 2.31 2.31 0 0 0 .639-1.048 5.57 5.57 0 0 0 .19-1.537v-2.39a5.25 5.25 0 0 0-.19-1.538 2.313 2.313 0 0 0-.639-1.048 2.701 2.701 0 0 0-1.183-.598zm-7.825 6.046a3.703 3.703 0 0 1-.083-.88v-1.58c-.007-.29.021-.579.083-.862.043-.21.14-.406.281-.563.149-.15.335-.254.538-.299.28-.064.565-.093.851-.085h4.111c.292-.004.583.024.869.085.204.041.391.145.538.299.138.16.235.354.28.563.063.283.09.573.084.863v1.58c.007.295-.021.59-.083.879a1.13 1.13 0 0 1-.282.555 1.15 1.15 0 0 1-.537.298 3.08 3.08 0 0 1-.869.094h-4.11a3.376 3.376 0 0 1-.852-.094 1.15 1.15 0 0 1-.538-.298 1.2 1.2 0 0 1-.28-.555z" clip-rule="evenodd"/><path fill="#fff" d="M74.766 11.305c.248 0 .372.12.372.367v1.631a.348.348 0 0 1-.092.29.321.321 0 0 1-.28.096h-5.064v8.897a.33.33 0 0 1-.088.277.305.305 0 0 1-.268.09h-1.755a.305.305 0 0 1-.267-.09.33.33 0 0 1-.089-.277v-8.904h-5.062a.32.32 0 0 1-.28-.096.349.349 0 0 1-.093-.29v-1.632c0-.248.124-.367.373-.367h12.59l.003.008z"/><path fill="#fff" fill-rule="evenodd" d="M85.768 13.95a5.592 5.592 0 0 0-1.365-.136l-.002.01h-4.724a7.375 7.375 0 0 0-1.828.188 2.716 2.716 0 0 0-1.175.598 2.314 2.314 0 0 0-.638 1.049 5.49 5.49 0 0 0-.19 1.537v2.391c-.014.52.05 1.038.19 1.538.116.403.337.766.638 1.048.339.295.744.497 1.177.589a7.863 7.863 0 0 0 1.829.179h6.948c.08.01.159-.017.216-.075a.273.273 0 0 0 .074-.224v-1.4a.273.273 0 0 0-.074-.223.252.252 0 0 0-.216-.075h-6.717a2.08 2.08 0 0 1-1.406-.35 1.512 1.512 0 0 1-.364-1.127v-.402h8.138a.998.998 0 0 0 .695-.204 1 1 0 0 0 .224-.743v-1.58a5.599 5.599 0 0 0-.133-1.272 1.86 1.86 0 0 0-.446-.845c-.235-.238-.53-.4-.851-.47zm-7.627 3.638h-.008.008zm6.519 0h-6.52v-.452A1.52 1.52 0 0 1 78.505 16c.417-.278.914-.4 1.406-.341h4.046c.273-.032.548.044.77.213.157.208.232.471.206.734v.7a.256.256 0 0 1-.069.212.236.236 0 0 1-.204.07z" clip-rule="evenodd"/><path fill="#fff" d="M101.515 11.305c.149 0 .232.051.249.162a.31.31 0 0 1-.091.276l-4.947 5.174 5.171 5.601c.073.07.108.174.091.276-.017.103-.1.163-.248.163h-2.21a.74.74 0 0 1-.305-.052.513.513 0 0 1-.207-.179l-3.979-4.305-3.995 4.305a.637.637 0 0 1-.213.18.731.731 0 0 1-.315.05h-2.092c-.14 0-.213-.05-.232-.162a.31.31 0 0 1 .09-.276l5.303-5.684-4.781-5.089a.36.36 0 0 1-.082-.276c.008-.102.09-.162.24-.162h2.208a.612.612 0 0 1 .306.06.561.561 0 0 1 .207.17l3.515 3.86 3.723-3.86a.635.635 0 0 1 .207-.17.614.614 0 0 1 .306-.06l2.081-.002z"/><defs><linearGradient id="b" x1="8.5" x2="49.254" y1="21.75" y2="27.973" gradientUnits="userSpaceOnUse"><stop offset=".07" stop-color="#77FE9E"/><stop offset=".369" stop-color="#72A7FF"/><stop offset="1" stop-color="#EC02D5"/></linearGradient></defs></svg>