<svg xmlns="http://www.w3.org/2000/svg" xmlns:xlink="http://www.w3.org/1999/xlink"
    viewBox="0 0 325.9 168.7">
    <defs>
        <style>
            .cls-1{fill:url(#linear-gradient);}.cls-2{fill:url(#linear-gradient-2);}.cls-3{fill:url(#linear-gradient-3);}.cls-4{fill:url(#linear-gradient-4);}.cls-5{fill:url(#linear-gradient-5);}.cls-6{fill:url(#linear-gradient-6);}.cls-7{fill:url(#linear-gradient-7);}.cls-8{fill:url(#linear-gradient-8);}.cls-9{fill:url(#linear-gradient-9);}</style>
        <linearGradient id="linear-gradient" x1="162.75" y1="286.27" x2="162.75" y2="-133.34"
            gradientTransform="matrix(1, 0, 0, -1, 0, 207.6)" gradientUnits="userSpaceOnUse">
            <stop offset="0" stop-color="#1b1464" />
            <stop offset="0.37" stop-color="#05566a" />
            <stop offset="0.66" stop-color="#02d5bd" />
            <stop offset="1" stop-color="#9dfab8" />
        </linearGradient>
        <linearGradient id="linear-gradient-2" x1="244.25" y1="286.27" x2="244.25" y2="-133.34"
            xlink:href="#linear-gradient" />
        <linearGradient id="linear-gradient-3" x1="60.95" y1="286.27" x2="60.95" y2="-133.34"
            xlink:href="#linear-gradient" />
        <linearGradient id="linear-gradient-4" x1="285.1" y1="183.15" x2="285.1" y2="74.07"
            xlink:href="#linear-gradient" />
        <linearGradient id="linear-gradient-5" x1="285.1" y1="92.99" x2="285.1" y2="213.41"
            xlink:href="#linear-gradient" />
        <linearGradient id="linear-gradient-6" x1="203.45" y1="183.15" x2="203.45" y2="74.07"
            xlink:href="#linear-gradient" />
        <linearGradient id="linear-gradient-7" x1="203.45" y1="92.99" x2="203.45" y2="213.41"
            xlink:href="#linear-gradient" />
        <linearGradient id="linear-gradient-8" x1="-90.72" y1="180.65" x2="224.54" y2="180.65"
            gradientTransform="matrix(1, 0, 0, -1, 0, 207.6)" gradientUnits="userSpaceOnUse">
            <stop offset="0" stop-color="#1b1464" />
            <stop offset="0.14" stop-color="#122e66" />
            <stop offset="0.37" stop-color="#05566a" />
            <stop offset="0.66" stop-color="#02d5bd" />
            <stop offset="1" stop-color="#9dfab8" />
        </linearGradient>
        <linearGradient id="linear-gradient-9" x1="282.64" y1="150.26" x2="91.72" y2="125.51"
            xlink:href="#linear-gradient" />
    </defs>
    <g id="Layer_2" data-name="Layer 2">
        <g id="Layer_1-2" data-name="Layer 1">
            <polygon class="cls-1"
                points="203.6 0 162.7 0 121.9 53.9 162.7 107.7 203.6 107.7 162.7 53.9 203.6 0" />
            <polygon class="cls-2"
                points="285.1 0 244.3 0 203.4 53.9 244.3 107.7 285.1 107.7 244.3 53.9 285.1 0" />
            <path class="cls-3"
                d="M95,35.5,121.9,0H81L40.8,53.1V.1H0V107.8H40.8l20-26.7L81,107.8h40.8L81.3,53.9Z" />
            <polygon class="cls-4"
                points="285.1 107.7 244.3 107.7 285.1 53.9 325.9 53.9 285.1 107.7" />
            <polygon class="cls-5" points="285.1 53.9 325.9 53.9 285.1 0 244.3 0 285.1 53.9" />
            <polygon class="cls-6"
                points="203.4 107.7 162.6 107.7 203.4 53.9 244.3 53.9 203.4 107.7" />
            <polygon class="cls-7" points="203.4 53.9 244.3 53.9 203.4 0 162.6 0 203.4 53.9" />
            <path
                fill="#FFFFFF"
                d="M10.3,157.2l-2.9,3.2v7.8H.2V138.5H7.4v13.1l2.5-3.8,6.4-9.3h8.9l-10,13.2,10,16.6H16.7Z" />
            <path
                fill="#FFFFFF"
                d="M35.4,150.5h3.2c2.6,0,3.9-1.3,3.9-3.8a3.24,3.24,0,0,0-.9-2.4,3.57,3.57,0,0,0-2.6-.9,4.07,4.07,0,0,0-2.4.8,2.33,2.33,0,0,0-1,2H28.7A6.77,6.77,0,0,1,30,142a9.44,9.44,0,0,1,3.6-2.9,11.91,11.91,0,0,1,5.1-1,12.28,12.28,0,0,1,7.8,2.3,7.47,7.47,0,0,1,2.8,6.2,6,6,0,0,1-1.2,3.6,8.7,8.7,0,0,1-3.4,2.8,7.79,7.79,0,0,1,3.7,2.6,6.87,6.87,0,0,1,1.3,4.3,7.56,7.56,0,0,1-3.1,6.4,12.5,12.5,0,0,1-8,2.4,13.71,13.71,0,0,1-5.4-1.1,8.43,8.43,0,0,1-3.8-3.1,7.68,7.68,0,0,1-1.3-4.5H35a3.36,3.36,0,0,0,1.1,2.4,3.62,3.62,0,0,0,2.7,1,4,4,0,0,0,2.9-1,3.47,3.47,0,0,0,1.1-2.6,4.11,4.11,0,0,0-1.1-3.2,4.77,4.77,0,0,0-3.1-.9H35.3v-5.2Z" />
            <path
                fill="#FFFFFF"
                d="M76.4,156.1q0,6-2.7,9.3a9.22,9.22,0,0,1-7.6,3.3,9.43,9.43,0,0,1-7.7-3.3q-2.7-3.3-2.7-9.3v-5.4q0-6,2.7-9.3a9.36,9.36,0,0,1,7.6-3.3,9.56,9.56,0,0,1,7.7,3.3q2.7,3.3,2.7,9.3Zm-6.8-6.3a11.9,11.9,0,0,0-.8-4.8,2.76,2.76,0,0,0-2.7-1.6,2.79,2.79,0,0,0-2.6,1.5,11.79,11.79,0,0,0-.9,4.5V157a12.1,12.1,0,0,0,.8,4.9,2.84,2.84,0,0,0,2.7,1.5,2.79,2.79,0,0,0,2.6-1.5,10.81,10.81,0,0,0,.9-4.7Z" />
            <path
                fill="#FFFFFF"
                d="M103.2,156.1q0,6-2.7,9.3a9.22,9.22,0,0,1-7.6,3.3,9.43,9.43,0,0,1-7.7-3.3q-2.7-3.3-2.7-9.3v-5.4q0-6,2.7-9.3a9.36,9.36,0,0,1,7.6-3.3,9.56,9.56,0,0,1,7.7,3.3q2.7,3.3,2.7,9.3Zm-6.9-6.3a11.9,11.9,0,0,0-.8-4.8,2.76,2.76,0,0,0-2.7-1.6,2.79,2.79,0,0,0-2.6,1.5,11.79,11.79,0,0,0-.9,4.5V157a12.1,12.1,0,0,0,.8,4.9,2.84,2.84,0,0,0,2.7,1.5,2.79,2.79,0,0,0,2.6-1.5,10.81,10.81,0,0,0,.9-4.7Z" />
            <path
                fill="#FFFFFF"
                d="M127.7,163.1l8.5-24.5h4.3l-11,29.7H126l-11-29.7h4.3Z" />
            <path
                fill="#FFFFFF"
                d="M163.8,154.5H150.9V165h15v3.2H147V138.5h18.7v3.2H150.9v9.6h12.9v3.2Z" />
            <path
                fill="#FFFFFF"
                d="M195.3,168.3h-3.9l-15-22.9v22.9h-3.9V138.6h3.9l15,23v-23h3.9Z" />
            <path
                fill="#FFFFFF"
                d="M223.7,141.8h-9.6v26.5h-3.9V141.8h-9.5v-3.2h23Z" />
            <path
                fill="#FFFFFF"
                d="M249.8,138.6v20.2a9.68,9.68,0,0,1-2.6,6.9,10.34,10.34,0,0,1-7.1,3h-1a11.47,11.47,0,0,1-7.8-2.6,9.56,9.56,0,0,1-2.9-7.3V138.5h3.9v20.1a6.66,6.66,0,0,0,1.8,5,8.12,8.12,0,0,0,10.2,0,6.81,6.81,0,0,0,1.8-5V138.4h3.7Z" />
            <path
                fill="#FFFFFF"
                d="M266.9,156.3h-7v12H256V138.6h9.8c3.3,0,5.9.8,7.7,2.3s2.7,3.7,2.7,6.7a7.64,7.64,0,0,1-1.5,4.8,8.93,8.93,0,0,1-4.2,3.1l7,12.6v.2h-4.2Zm-7-3.2h6a6.7,6.7,0,0,0,4.6-1.5,5.35,5.35,0,0,0,1.7-4.1,5.22,5.22,0,0,0-1.6-4.2,6.8,6.8,0,0,0-4.7-1.5h-6Z" />
            <path
                fill="#FFFFFF"
                d="M298.6,154.5H285.7V165h15v3.2H281.8V138.5h18.7v3.2H285.7v9.6h12.9v3.2Z" />
            <path
                fill="#FFFFFF"
                d="M313.5,155c-3.4-1-5.8-2.2-7.3-3.6a6.82,6.82,0,0,1-2.3-5.2,7.1,7.1,0,0,1,2.8-5.8,11.38,11.38,0,0,1,7.3-2.3,12.34,12.34,0,0,1,5.5,1.2,9.14,9.14,0,0,1,3.7,3.3,8.21,8.21,0,0,1,1.3,4.6h-3.9a5.8,5.8,0,0,0-1.7-4.3,7.08,7.08,0,0,0-4.8-1.5,6.89,6.89,0,0,0-4.5,1.3,4.18,4.18,0,0,0-1.6,3.5,4,4,0,0,0,1.5,3.1,16.08,16.08,0,0,0,5.2,2.3,25.76,25.76,0,0,1,5.8,2.3,8.72,8.72,0,0,1,3.1,2.9,7.09,7.09,0,0,1,1,3.9,7,7,0,0,1-2.8,5.8,12.37,12.37,0,0,1-7.5,2.2,13.88,13.88,0,0,1-5.7-1.2,10.32,10.32,0,0,1-4.1-3.2,7.58,7.58,0,0,1-1.4-4.6H307a5.36,5.36,0,0,0,2,4.3,8.57,8.57,0,0,0,5.3,1.6,7.42,7.42,0,0,0,4.8-1.3,4.14,4.14,0,0,0,1.7-3.5,4.06,4.06,0,0,0-1.5-3.4A26,26,0,0,0,313.5,155Z" />
            <polygon class="cls-8"
                points="162.7 53.9 121.9 0 81 0 106.7 33.9 81.4 33.9 81.4 53.9 121.8 53.9 121.8 53.7 121.9 53.9 162.7 53.9" />
            <polygon class="cls-9"
                points="121.9 53.9 121.8 54 121.8 53.9 81.4 53.9 81.4 73.9 106.7 73.9 81 107.7 121.9 107.7 162.7 53.9 121.9 53.9" />
        </g>
    </g>
</svg>