<svg width="408" height="320" viewBox="0 0 408 320" fill="none" xmlns="http://www.w3.org/2000/svg">
<g clip-path="url(#clip0_813_60)">
<g opacity="0.64">
<line y1="-0.5" x2="320" y2="-0.5" transform="matrix(0 -1 -1 0 24 320)" stroke="url(#paint0_linear_813_60)" stroke-opacity="0.64"/>
<line x1="96.5" x2="96.5" y2="320" stroke="url(#paint1_linear_813_60)" stroke-opacity="0.64"/>
<line y1="-0.5" x2="320" y2="-0.5" transform="matrix(0 -1 -1 0 168 320)" stroke="url(#paint2_linear_813_60)" stroke-opacity="0.64"/>
<line x1="240.5" x2="240.5" y2="320" stroke="url(#paint3_linear_813_60)" stroke-opacity="0.64"/>
<line y1="-0.5" x2="320" y2="-0.5" transform="matrix(0 -1 -1 0 312 320)" stroke="url(#paint4_linear_813_60)" stroke-opacity="0.64"/>
<line x1="384.5" x2="384.5" y2="320" stroke="url(#paint5_linear_813_60)" stroke-opacity="0.64"/>
</g>
<g opacity="0.64">
<line x1="384" y1="0.5" x2="-2.18557e-08" y2="0.499983" stroke="url(#paint6_linear_813_60)" stroke-opacity="0.64"/>
<line x1="384" y1="72.5" x2="2.18557e-08" y2="72.5" stroke="url(#paint7_linear_813_60)" stroke-opacity="0.64"/>
<line x1="384" y1="144.5" x2="-2.18557e-08" y2="144.5" stroke="url(#paint8_linear_813_60)" stroke-opacity="0.64"/>
<line x1="384" y1="216.5" x2="2.18557e-08" y2="216.5" stroke="url(#paint9_linear_813_60)" stroke-opacity="0.64"/>
</g>
<line x1="162" y1="72.5" x2="175" y2="72.5" stroke="white" stroke-opacity="0.88"/>
<line x1="168.5" y1="66" x2="168.5" y2="79" stroke="white" stroke-opacity="0.88"/>
<line x1="306" y1="144.5" x2="319" y2="144.5" stroke="white" stroke-opacity="0.88"/>
<line x1="312.5" y1="138" x2="312.5" y2="151" stroke="white" stroke-opacity="0.88"/>
<line x1="90" y1="216.5" x2="103" y2="216.5" stroke="white" stroke-opacity="0.88"/>
<line x1="96.5" y1="210" x2="96.5" y2="223" stroke="white" stroke-opacity="0.88"/>
</g>
<defs>
<linearGradient id="paint0_linear_813_60" x1="0" y1="0.5" x2="320" y2="0.5" gradientUnits="userSpaceOnUse">
<stop stop-color="white"/>
<stop offset="1" stop-color="white" stop-opacity="0"/>
</linearGradient>
<linearGradient id="paint1_linear_813_60" x1="95.5" y1="0" x2="95.5" y2="320" gradientUnits="userSpaceOnUse">
<stop stop-color="white"/>
<stop offset="1" stop-color="white" stop-opacity="0"/>
</linearGradient>
<linearGradient id="paint2_linear_813_60" x1="0" y1="0.5" x2="320" y2="0.5" gradientUnits="userSpaceOnUse">
<stop stop-color="white"/>
<stop offset="1" stop-color="white" stop-opacity="0"/>
</linearGradient>
<linearGradient id="paint3_linear_813_60" x1="239.5" y1="0" x2="239.5" y2="320" gradientUnits="userSpaceOnUse">
<stop stop-color="white"/>
<stop offset="1" stop-color="white" stop-opacity="0"/>
</linearGradient>
<linearGradient id="paint4_linear_813_60" x1="0" y1="0.5" x2="246" y2="0.5" gradientUnits="userSpaceOnUse">
<stop stop-color="white"/>
<stop offset="1" stop-color="white" stop-opacity="0"/>
</linearGradient>
<linearGradient id="paint5_linear_813_60" x1="383.5" y1="0" x2="383.5" y2="320" gradientUnits="userSpaceOnUse">
<stop stop-color="white"/>
<stop offset="1" stop-color="white" stop-opacity="0"/>
</linearGradient>
<linearGradient id="paint6_linear_813_60" x1="384" y1="-0.5" x2="2.18557e-08" y2="-0.500017" gradientUnits="userSpaceOnUse">
<stop stop-color="white"/>
<stop offset="1" stop-color="white" stop-opacity="0"/>
</linearGradient>
<linearGradient id="paint7_linear_813_60" x1="384" y1="71.5" x2="-2.18557e-08" y2="71.5" gradientUnits="userSpaceOnUse">
<stop stop-color="white"/>
<stop offset="1" stop-color="white" stop-opacity="0"/>
</linearGradient>
<linearGradient id="paint8_linear_813_60" x1="384" y1="143.5" x2="2.18557e-08" y2="143.5" gradientUnits="userSpaceOnUse">
<stop stop-color="white"/>
<stop offset="1" stop-color="white" stop-opacity="0"/>
</linearGradient>
<linearGradient id="paint9_linear_813_60" x1="384" y1="215.5" x2="-2.18557e-08" y2="215.5" gradientUnits="userSpaceOnUse">
<stop stop-color="white"/>
<stop offset="1" stop-color="white" stop-opacity="0"/>
</linearGradient>
<clipPath id="clip0_813_60">
<rect width="408" height="320" fill="white" transform="matrix(-1 0 0 1 408 0)"/>
</clipPath>
</defs>
</svg>
