<svg width="22" height="19" viewBox="0 0 22 19" fill="none" xmlns="http://www.w3.org/2000/svg">
<g clip-path="url(#clip0_4174_1498)">
<path fill-rule="evenodd" clip-rule="evenodd" d="M1.51239 7.84878C7.41795 5.27581 11.3559 3.57956 13.3263 2.76001C18.9521 0.420043 20.1211 0.0135653 20.883 0.00014311C21.0506 -0.00280894 21.4253 0.0387224 21.668 0.235668C21.873 0.401964 21.9294 0.626607 21.9563 0.784275C21.9833 0.941942 22.0169 1.30111 21.9902 1.58176C21.6854 4.785 20.3662 12.5584 19.6951 16.1461C19.4111 17.6642 18.852 18.1732 18.3107 18.223C17.1343 18.3313 16.2409 17.4456 15.1015 16.6987C13.3186 15.5299 12.3113 14.8024 10.5807 13.6619C8.58058 12.3439 9.87715 11.6194 11.017 10.4356C11.3153 10.1257 16.4986 5.41113 16.5989 4.98344C16.6115 4.92995 16.6231 4.73057 16.5046 4.62528C16.3862 4.52 16.2114 4.556 16.0852 4.58464C15.9064 4.62522 13.0581 6.50784 7.54035 10.2325C6.73187 10.7876 5.99958 11.0581 5.34347 11.044C4.62016 11.0283 3.2288 10.635 2.19447 10.2988C0.925826 9.88638 -0.0824703 9.66835 0.00532971 8.96799C0.0510613 8.6032 0.553413 8.23013 1.51239 7.84878Z" fill="black"/>
</g>
<defs>
<clipPath id="clip0_4174_1498">
<rect width="22" height="19" fill="black"/>
</clipPath>
</defs>
</svg>
